<?xml version="1.0" standalone="no"?>
<!DOCTYPE svg PUBLIC "-//W3C//DTD SVG 20010904//EN"
 "http://www.w3.org/TR/2001/REC-SVG-20010904/DTD/svg10.dtd">
<svg version="1.0" xmlns="http://www.w3.org/2000/svg"
 width="584.000000pt" height="584.000000pt" viewBox="0 0 584.000000 584.000000"
 preserveAspectRatio="xMidYMid meet">
<metadata>
Created by potrace 1.11, written by Peter Selinger 2001-2013
</metadata>
<g transform="translate(0.000000,584.000000) scale(0.100000,-0.100000)"
fill="#000000" stroke="none">
<path d="M3513 3697 c-5 -6 -8 -43 -7 -80 2 -75 1 -75 -71 -91 l-30 -7 0 88
c-1 67 -4 87 -14 85 -7 -1 -25 -4 -39 -6 -136 -19 -296 -135 -360 -262 -41
-81 -53 -131 -53 -222 -1 -96 6 -133 37 -197 29 -62 54 -94 124 -162 30 -29
58 -56 62 -60 82 -93 218 -213 241 -213 3 0 36 -18 74 -39 37 -21 77 -42 89
-45 18 -6 21 -2 19 24 -1 16 1 30 5 30 19 0 60 -44 60 -64 0 -13 14 -38 31
-55 30 -32 31 -35 26 -106 -7 -114 -59 -188 -162 -229 l-40 -16 0 -73 0 -72
-45 3 c-24 2 -48 8 -51 14 -4 6 -6 32 -4 58 4 55 -1 65 -35 66 -65 4 -151 20
-210 40 -25 9 -56 18 -69 20 -13 3 -42 14 -64 24 -23 11 -44 20 -48 20 -4 0
-10 -17 -15 -37 -4 -21 -8 -40 -9 -43 -4 -14 -16 -68 -19 -85 -2 -11 -7 -27
-10 -35 -4 -10 5 -22 26 -35 51 -30 102 -54 115 -55 9 0 11 -11 7 -34 -4 -28
0 -39 23 -61 50 -48 190 -109 273 -119 19 -3 35 -5 35 -6 0 -1 41 -4 91 -7
l90 -5 -1 100 -1 99 30 11 c16 7 31 10 33 8 2 -2 4 -42 4 -89 0 -67 3 -88 17
-99 22 -19 48 -28 56 -20 4 3 14 7 23 8 42 7 124 39 177 71 56 34 146 117 146
134 0 5 8 16 18 26 11 10 29 45 42 78 12 33 26 67 30 75 12 27 8 193 -6 249
-26 100 -83 178 -215 297 -19 17 -50 48 -70 70 -66 72 -123 110 -260 176 -100
48 -104 49 -101 16 4 -34 -5 -35 -39 -5 -45 38 -63 85 -63 162 0 59 4 77 27
112 34 54 84 100 123 114 l30 12 -1 98 -2 99 34 0 c31 0 33 -2 34 -37 1 -21 1
-51 0 -68 -2 -51 22 -70 87 -71 87 -2 141 -13 193 -39 l47 -24 16 24 c9 14 14
25 11 25 -2 0 8 21 23 48 15 26 36 64 46 85 l18 39 -26 27 c-16 17 -55 37 -99
51 -40 13 -76 27 -80 30 -4 4 -1 20 8 36 8 16 15 32 15 35 0 10 -85 48 -135
59 -77 18 -77 18 -161 25 -43 4 -82 9 -85 11 -4 2 -11 -2 -16 -9z"/>
<path d="M1819 3678 c-284 -72 -484 -305 -548 -638 -24 -126 -32 -328 -16
-445 3 -27 8 -61 9 -75 2 -14 7 -41 12 -60 4 -19 8 -37 9 -40 0 -3 7 -23 14
-45 16 -51 18 -58 20 -68 2 -14 54 -113 89 -167 19 -30 69 -89 111 -131 42
-41 97 -97 122 -125 118 -127 272 -209 433 -229 l56 -7 1 51 c2 140 1 136 34
139 l31 3 -1 -63 c-1 -94 19 -138 60 -132 11 2 38 5 60 8 22 3 56 10 75 16 19
6 43 13 54 15 52 12 178 85 227 133 l31 30 -53 49 c-29 26 -85 80 -124 118
-85 86 -199 185 -211 185 -5 0 -22 -14 -38 -30 -36 -37 -140 -88 -184 -92 -37
-3 -41 -12 -39 -83 1 -48 1 -50 -25 -48 -15 1 -38 9 -53 19 -22 14 -26 24 -24
55 3 36 -3 53 -19 55 -38 4 -95 29 -107 47 -16 25 -54 128 -61 167 -3 14 -7
32 -10 39 -18 52 -26 375 -11 451 4 19 13 60 19 90 6 30 12 57 13 60 0 3 6 15
13 28 7 12 10 22 7 22 -15 0 65 128 106 169 71 71 104 92 182 112 52 13 50 9
48 121 -1 54 0 56 21 51 38 -10 45 -21 44 -71 -1 -56 25 -87 83 -95 54 -7 120
-40 170 -86 43 -39 46 -40 65 -23 29 24 82 72 140 125 l50 45 -40 37 c-21 20
-67 55 -101 78 -45 29 -60 44 -52 53 7 8 -4 23 -40 53 -27 22 -52 41 -55 41
-4 0 -23 11 -44 23 -39 25 -152 70 -152 62 0 -3 -8 -1 -18 4 -10 5 -47 12 -83
16 l-66 7 1 -67 c1 -36 -1 -71 -4 -76 -4 -5 -28 -12 -54 -15 l-48 -7 2 49 c4
113 3 115 -32 112 -18 -1 -62 -10 -99 -20z"/>
<path d="M4367 3249 c-100 -28 -155 -143 -115 -239 20 -46 76 -100 104 -100
17 0 25 -9 34 -36 19 -55 110 -141 157 -147 93 -12 124 -4 177 50 36 35 47 65
48 125 0 75 -63 161 -144 195 -27 11 -40 24 -48 47 -11 34 -49 75 -86 94 -28
15 -94 21 -127 11z"/>
<path d="M4378 2180 c-165 -31 -189 -271 -33 -336 19 -7 36 -18 40 -24 11 -18
14 -50 4 -55 -5 -4 -9 -13 -9 -21 0 -17 -74 -136 -107 -172 -29 -31 -18 -39
45 -32 53 6 85 28 140 96 31 39 35 41 62 31 24 -9 27 -14 19 -34 -24 -63 -65
-136 -105 -184 -43 -53 -43 -54 -25 -73 14 -13 35 -19 73 -20 51 -1 55 1 109
52 110 103 177 252 181 400 1 54 -3 76 -21 107 -25 44 -107 115 -132 115 -9 0
-22 7 -29 15 -7 8 -10 15 -6 15 4 0 0 13 -9 29 -17 34 -68 75 -105 86 -44 12
-54 13 -92 5z"/>
</g>
</svg>
